<svg width="234" height="259" viewBox="0 0 234 259" fill="none" xmlns="http://www.w3.org/2000/svg">
<g opacity="0.9">
<path d="M124.2 109.337V258.337L19.1 244.437C18.8 195.637 17.4 148.537 11 109.137L10.5 100.337L124.2 109.337Z" fill="#EA493D"/>
<path d="M224 100.337C220.3 144.837 220.7 192.237 224 241.837L124.2 258.337V109.337L224 100.337Z" fill="#AA170C"/>
<g style="mix-blend-mode:multiply">
<path d="M224 100.337V111.037L124.2 122.137L11 109.137L10.5 100.337L124.2 109.337L224 100.337Z" fill="#E0867C"/>
</g>
<path d="M0 61.0367L121.3 48.1367L233.1 61.0367L120.1 81.0367L0 61.0367Z" fill="#EA493D"/>
<path d="M230.8 103.437L124.2 114.637L3.5 103.437C3.96667 89.2371 2.8 75.1038 0 61.0371L122.9 73.4371L233.1 61.0371C230.3 75.1704 229.533 89.3038 230.8 103.437Z" fill="#EA493D"/>
<path d="M230.8 103.437L124.2 114.637L122.9 73.4371L233.1 61.0371C230.3 75.1704 229.533 89.3038 230.8 103.437Z" fill="#AA170C"/>
<path d="M57.1001 66.8359L75.7001 68.6359L78.7001 252.336L64.1001 250.436L57.1001 66.8359Z" fill="#F8B229"/>
<path d="M57.1001 66.8363L165.1 53.2363L181.9 55.1363L75.7001 68.6363L57.1001 66.8363Z" fill="#F8B229"/>
<path d="M167.8 68.4363V251.136L183.4 248.536L186.9 66.2363L167.8 68.4363Z" fill="#F8B229"/>
<path d="M186.9 66.2363L75.4001 53.2363L57.1001 54.9363L167.8 68.4363L186.9 66.2363Z" fill="#F8B229"/>
<path d="M120 59.3364C119.933 59.3364 119.867 59.3364 119.8 59.3364C117.7 59.8364 112.4 57.1364 110.3 56.4364C96.7 52.2364 83.1 47.8364 70 42.4364C64.3 40.0364 58.1 37.0364 55.4 31.6364C55.1334 31.1698 54.9334 30.7031 54.8 30.2364C52.5 24.1364 55.5 16.9364 60.8 13.2364C66.1 9.43643 73.2 9.03643 79.5 10.8364C85.7 12.6364 91.1 16.5364 95.9 20.9364C101 25.7364 105.5 31.1364 109.5 36.9364C113.1 42.2364 116.4 47.8364 119.5 53.4364C120.5 55.0364 123 58.5364 120 59.3364Z" fill="#EA493D"/>
<path d="M119.8 59.3361C117.7 59.8361 112.4 57.1361 110.3 56.4361C96.6999 52.2361 83.0999 47.8361 69.9999 42.4361C64.2999 40.0361 58.0999 37.0361 55.3999 31.6361C55.4999 30.4361 55.7999 29.3361 56.4999 28.3361C57.9999 25.9361 60.8999 24.9361 63.6999 25.0361C66.3999 25.1361 69.0999 26.2361 71.5999 27.3361C89.1999 35.3361 104.7 47.3361 119.8 59.3361Z" fill="#AA170C"/>
<path d="M122.7 59.3364C122.767 59.3364 122.833 59.3364 122.9 59.3364C125.5 59.8364 131.8 56.6364 134.3 55.9364C150.6 50.8364 166.8 45.5364 182.5 39.0364C189.4 36.2364 196.7 32.6364 200 26.1364C200.267 25.6031 200.5 25.0698 200.7 24.5364C203.4 17.2364 199.9 8.53644 193.5 4.13644C187.1 -0.363558 178.6 -0.963559 171.2 1.23644C163.7 3.43644 157.2 8.03644 151.5 13.3364C145.4 19.0364 140 25.6364 135.3 32.5364C130.9 38.8364 127 45.5364 123.2 52.2364C122.1 54.2364 119 58.3364 122.7 59.3364Z" fill="#EA493D"/>
<path d="M122.9 59.3362C125.5 59.8362 131.8 56.6362 134.3 55.9362C150.6 50.8362 166.8 45.5362 182.5 39.0362C189.4 36.2362 196.7 32.6362 200 26.1362C199.9 24.7362 199.5 23.3362 198.7 22.1362C196.9 19.3362 193.4 18.1362 190 18.2362C186.7 18.3362 183.6 19.6362 180.6 21.0362C159.5 30.6362 141 44.9362 122.9 59.3362Z" fill="#AA170C"/>
</g>
</svg>
