<svg width="275" height="290" viewBox="0 0 275 290" fill="none" xmlns="http://www.w3.org/2000/svg">
<path d="M261.365 119.737C261.265 126.637 261.065 133.437 260.665 140.037C260.599 141.637 260.532 143.204 260.465 144.737C260.265 147.804 260.065 150.837 259.865 153.837C259.465 159.171 258.999 164.371 258.465 169.437C258.132 173.037 257.765 176.537 257.365 179.937C256.832 184.137 256.299 188.237 255.765 192.237C255.165 196.337 254.565 200.437 253.965 204.337C253.365 208.204 252.732 211.937 252.065 215.537C251.399 219.204 250.732 222.704 250.065 226.037C248.999 231.504 247.932 236.571 246.865 241.237C246.199 244.237 245.532 247.037 244.865 249.637C241.065 265.437 238.065 274.337 238.065 274.337C230.565 276.937 220.765 279.337 210.365 281.337C205.565 282.237 200.765 283.137 195.865 283.937C171.665 287.837 148.665 289.937 148.665 289.937C148.665 289.937 146.965 284.537 144.665 275.437C144.065 272.971 143.432 270.304 142.765 267.437C142.632 266.771 142.465 266.104 142.265 265.437C141.265 260.637 140.165 255.337 139.165 249.537C138.765 246.871 138.332 244.104 137.865 241.237C137.065 235.337 136.365 228.937 135.765 222.437C135.565 219.571 135.399 216.671 135.265 213.737C135.199 212.671 135.165 211.604 135.165 210.537C134.965 205.271 134.932 200.204 135.065 195.337C135.065 192.471 135.132 189.671 135.265 186.937C135.565 180.337 136.165 174.237 136.765 168.837C137.032 166.371 137.299 164.071 137.565 161.937C137.632 161.537 137.699 161.137 137.765 160.737C139.865 146.837 142.165 138.637 142.165 138.637L261.365 119.737Z" fill="#287F4B"/>
<path d="M260.465 144.737C260.265 147.804 260.065 150.837 259.865 153.837C255.865 153.137 253.165 150.137 250.665 146.437C249.765 145.037 248.765 143.237 247.265 142.537C246.999 142.404 246.699 142.304 246.365 142.237C244.765 141.937 242.965 142.637 241.265 143.637C240.732 143.971 240.232 144.271 239.765 144.537C234.165 148.337 229.665 154.237 223.565 156.837C218.265 159.137 213.665 158.037 209.765 155.337C207.665 153.837 205.865 151.937 203.865 150.437C202.865 149.737 201.765 149.037 200.465 148.537C196.765 147.237 192.865 150.037 189.365 153.137C188.499 153.871 187.665 154.637 186.865 155.437C181.765 160.137 176.165 164.837 170.065 165.237C167.165 165.437 164.565 164.237 162.465 162.437C161.165 161.237 160.065 159.837 158.765 158.737C158.699 158.671 158.632 158.604 158.565 158.537C158.365 158.404 158.165 158.271 157.965 158.137C155.165 156.237 151.365 157.537 148.865 160.537C147.865 161.737 147.165 163.237 146.665 164.837C146.365 166.337 145.565 167.337 144.565 167.937C143.665 168.637 142.465 168.937 141.465 168.737C141.465 168.737 141.432 168.704 141.365 168.637C139.865 168.337 138.865 166.937 139.465 164.537C139.732 163.604 140.032 162.737 140.365 161.937C140.565 161.404 140.765 160.937 140.965 160.537C141.099 160.137 141.265 159.771 141.465 159.437C144.165 154.237 148.865 150.037 154.065 149.037C157.265 148.337 160.265 148.937 162.765 150.537C164.965 151.937 166.465 154.437 168.765 155.937C169.232 156.271 169.732 156.504 170.265 156.637C171.665 156.937 173.265 156.537 174.865 155.737C178.065 154.137 181.265 150.937 183.765 148.637C188.765 144.037 194.365 139.637 200.265 139.637C204.865 139.737 208.365 142.637 211.665 145.337C212.765 146.337 214.065 147.437 215.465 148.337C217.165 149.437 219.165 150.037 221.565 149.337C223.365 148.737 225.065 147.637 226.665 146.237C227.765 145.337 228.865 144.437 229.965 143.537C232.465 141.237 234.965 138.937 237.765 137.137C243.165 133.537 249.265 132.337 253.565 135.937C255.065 137.237 256.165 138.937 257.265 140.737C257.465 141.004 257.632 141.271 257.765 141.537C258.565 142.637 259.365 143.937 260.465 144.737Z" fill="#094722"/>
<path d="M258.466 169.437C258.132 173.037 257.766 176.537 257.366 179.937C254.666 178.637 252.566 176.137 250.666 173.237C249.566 171.637 248.466 169.537 246.366 169.137C244.266 168.637 241.766 170.037 239.766 171.437C234.166 175.237 229.666 181.037 223.566 183.637C218.266 186.037 213.666 184.937 209.766 182.137C206.666 180.037 204.066 176.737 200.466 175.437C195.866 173.737 190.866 178.537 186.866 182.237C181.766 186.937 176.166 191.637 170.066 192.137C167.166 192.337 164.566 191.137 162.466 189.337C161.166 188.137 159.966 186.537 158.666 185.437C158.399 185.237 158.166 185.07 157.966 184.937C153.966 182.337 148.166 185.937 146.666 191.637C146.366 193.137 145.466 194.237 144.566 194.837C143.666 195.537 142.566 195.737 141.666 195.637C141.599 195.637 141.532 195.604 141.466 195.537C139.966 195.237 138.866 193.837 139.466 191.437C139.866 190.037 140.366 188.67 140.966 187.337C141.099 187.004 141.266 186.67 141.466 186.337C144.166 181.037 148.866 176.937 154.066 175.837C157.266 175.237 160.266 175.737 162.766 177.337C164.966 178.837 166.466 181.337 168.766 182.837C173.266 185.837 179.666 179.237 183.766 175.537C188.766 170.837 194.366 166.537 200.266 166.537C204.866 166.537 208.366 169.437 211.666 172.237C214.266 174.537 217.366 177.537 221.566 176.237C224.566 175.237 227.366 172.637 229.966 170.337C232.466 168.037 234.966 165.837 237.766 163.937C243.166 160.337 249.266 159.237 253.566 162.837C255.266 164.337 256.466 166.437 257.766 168.437C258.032 168.77 258.266 169.104 258.466 169.437Z" fill="#094722"/>
<path d="M255.765 192.238C255.165 196.338 254.565 200.438 253.965 204.338C252.765 203.138 251.665 201.738 250.665 200.138C249.565 198.438 248.465 196.338 246.365 195.938C244.265 195.538 241.765 196.938 239.765 198.338C234.165 202.038 229.665 207.938 223.565 210.538C218.265 212.838 213.665 211.738 209.765 209.038C206.665 206.938 204.065 203.638 200.465 202.338C195.865 200.638 190.865 205.338 186.865 209.138C181.765 213.838 176.165 218.538 170.065 218.938C167.165 219.238 164.565 218.038 162.465 216.138C161.165 214.938 159.965 213.438 158.565 212.338C158.365 212.138 158.165 211.971 157.965 211.838C153.965 209.238 148.165 212.838 146.665 218.538C146.365 220.038 145.465 221.138 144.565 221.738C143.965 222.138 143.365 222.338 142.765 222.438C142.365 222.538 141.965 222.538 141.565 222.438C139.965 222.138 138.865 220.738 139.465 218.238C139.865 216.838 140.365 215.504 140.965 214.238C141.299 213.371 141.699 212.571 142.165 211.838C144.965 207.238 149.265 203.638 154.065 202.738C157.265 202.038 160.265 202.638 162.765 204.238C164.965 205.738 166.465 208.238 168.765 209.738C173.265 212.738 179.665 206.138 183.765 202.338C188.765 197.738 194.365 193.338 200.265 193.438C204.865 193.438 208.365 196.338 211.665 199.038C214.265 201.338 217.365 204.438 221.565 203.038C224.565 202.138 227.365 199.538 229.965 197.238C232.465 194.938 234.965 192.738 237.765 190.838C243.165 187.238 249.265 186.038 253.565 189.738C254.365 190.438 255.065 191.338 255.765 192.238Z" fill="#094722"/>
<path d="M252.065 215.538C251.399 219.204 250.732 222.704 250.065 226.038C249.165 224.638 248.065 223.138 246.365 222.838C244.265 222.338 241.765 223.738 239.765 225.138C234.165 228.938 229.665 234.838 223.565 237.438C218.265 239.738 213.665 238.638 209.765 235.938C206.665 233.738 204.065 230.438 200.465 229.138C195.865 227.438 190.865 232.238 186.865 235.938C181.765 240.638 176.165 245.438 170.065 245.838C167.165 246.038 164.565 244.838 162.465 243.038C161.165 241.838 159.965 240.238 158.565 239.138C158.365 239.004 158.165 238.838 157.965 238.638C153.965 236.138 148.165 239.638 146.665 245.438C146.365 246.938 145.465 247.938 144.565 248.538C144.565 248.604 144.532 248.638 144.465 248.638C143.565 249.238 142.465 249.538 141.565 249.338C139.965 249.038 138.865 247.638 139.465 245.138C139.865 243.738 140.365 242.371 140.965 241.038C141.699 239.504 142.565 238.038 143.565 236.638C146.365 233.038 150.065 230.438 154.065 229.538C157.265 228.938 160.265 229.538 162.765 231.138C164.965 232.538 166.465 235.038 168.765 236.538C173.265 239.638 179.665 233.038 183.765 229.238C188.765 224.638 194.365 220.238 200.265 220.238C204.865 220.338 208.365 223.138 211.665 225.938C214.265 228.238 217.365 231.238 221.565 229.938C224.565 228.938 227.365 226.338 229.965 224.038C232.465 221.838 234.965 219.538 237.765 217.738C242.565 214.438 247.965 213.238 252.065 215.538Z" fill="#094722"/>
<path d="M246.866 241.237C246.199 244.237 245.532 247.037 244.866 249.637C243.166 249.837 241.366 250.937 239.766 252.037C234.166 255.837 229.666 261.637 223.566 264.237C218.266 266.637 213.666 265.537 209.766 262.737C206.666 260.637 204.066 257.337 200.466 256.037C195.866 254.337 190.866 259.137 186.866 262.837C181.766 267.537 176.166 272.237 170.066 272.737C167.166 272.937 164.566 271.737 162.466 269.837C161.166 268.737 159.966 267.137 158.566 266.037C158.366 265.837 158.166 265.671 157.966 265.537C153.966 262.937 148.166 266.537 146.666 272.237C146.666 272.304 146.666 272.337 146.666 272.337C146.266 273.737 145.566 274.737 144.666 275.437C144.666 275.437 144.632 275.437 144.566 275.437C143.666 276.137 142.466 276.337 141.466 276.137C139.966 275.837 138.866 274.437 139.466 271.937C139.866 270.537 140.366 269.204 140.966 267.937C141.366 267.071 141.799 266.237 142.266 265.437C143.266 263.937 144.366 262.437 145.566 261.237C148.066 258.837 150.966 257.037 154.066 256.437C157.266 255.837 160.266 256.337 162.766 257.937C164.966 259.437 166.466 261.937 168.766 263.437C173.266 266.437 179.666 259.837 183.766 256.037C188.766 251.437 194.366 247.137 200.266 247.137C204.866 247.137 208.366 250.037 211.666 252.837C214.266 255.037 217.366 258.137 221.566 256.737C224.566 255.837 227.366 253.237 229.966 250.937C232.466 248.637 234.966 246.437 237.766 244.537C240.766 242.637 243.866 241.337 246.866 241.237Z" fill="#094722"/>
<path d="M148.665 289.937C130.865 288.637 113.665 286.937 97.2653 284.737C91.8653 284.004 86.5319 283.204 81.2653 282.337C66.5653 280.037 52.5653 277.237 39.2653 274.037C38.3319 270.437 37.4653 266.837 36.6653 263.237C35.9986 260.437 35.3319 257.604 34.6653 254.737C33.1986 248.271 31.7986 241.737 30.4653 235.137C29.5986 230.737 28.7319 226.304 27.8652 221.837C26.7319 215.837 25.6653 209.837 24.6653 203.837C23.9319 199.437 23.2319 195.037 22.5652 190.637C21.5652 184.337 20.6653 178.037 19.7653 171.737C19.2986 168.604 18.8653 165.471 18.4653 162.337C17.6653 156.071 16.9319 149.771 16.2653 143.437C16.1986 142.837 16.1319 142.271 16.0652 141.737C15.7986 139.471 15.5652 137.237 15.3652 135.037C14.8319 129.971 14.3319 124.871 13.8652 119.737L142.165 138.637C141.765 145.571 141.532 152.504 141.465 159.437C141.465 159.771 141.465 160.071 141.465 160.337C141.465 160.871 141.465 161.371 141.465 161.837C141.399 164.104 141.365 166.371 141.365 168.637C141.365 168.704 141.365 168.737 141.365 168.737C141.299 174.671 141.332 180.537 141.465 186.337C141.465 186.671 141.465 186.971 141.465 187.237C141.532 190.037 141.599 192.804 141.665 195.537V195.637C141.799 201.171 141.965 206.571 142.165 211.837C142.232 212.504 142.265 213.171 142.265 213.837C142.399 216.704 142.532 219.504 142.665 222.237C142.732 222.304 142.765 222.371 142.765 222.437C143.032 227.371 143.299 232.104 143.565 236.637C143.699 237.837 143.799 239.004 143.865 240.137C144.065 243.071 144.265 245.904 144.465 248.637C144.865 253.171 145.232 257.371 145.565 261.237C145.765 262.837 145.932 264.371 146.065 265.837C146.265 268.171 146.465 270.337 146.665 272.337C146.732 273.071 146.799 273.804 146.865 274.537C147.965 284.337 148.665 289.937 148.665 289.937Z" fill="#35A562"/>
<path d="M141.465 160.337C141.465 160.87 141.465 161.37 141.465 161.837C141.399 164.104 141.365 166.37 141.365 168.637C141.365 168.704 141.365 168.737 141.365 168.737C140.165 168.937 138.932 169.004 137.665 168.937C137.332 168.87 137.032 168.837 136.765 168.837C131.665 168.237 128.165 165.537 125.365 161.837C124.365 160.637 123.565 159.337 122.765 158.037C121.465 156.037 120.165 153.637 117.965 152.737C115.665 151.637 112.865 152.437 110.565 153.237C105.865 155.037 101.765 158.237 97.0652 160.037C95.6652 160.637 94.2653 161.037 92.7653 161.237C87.8653 162.037 83.5653 160.537 79.7653 157.937C78.9653 157.337 78.1986 156.737 77.4653 156.137C74.0653 153.137 71.2653 149.237 67.2653 146.937C62.1653 144.037 56.6653 147.437 52.1653 150.137C51.1653 150.737 50.1653 151.337 49.1653 151.937C44.3653 154.537 39.2653 156.537 33.6653 155.537C30.3653 155.037 27.5653 153.137 25.2653 150.737C23.5653 148.937 22.1653 146.837 20.2653 145.237C19.0653 144.237 17.6653 143.637 16.2653 143.437C16.1986 142.837 16.1319 142.27 16.0652 141.737C15.7986 139.47 15.5652 137.237 15.3652 135.037C15.5652 135.037 15.7653 135.07 15.9653 135.137C19.5653 135.337 22.7652 136.637 25.5652 138.837C28.0652 140.937 29.6653 143.837 32.1653 145.937C37.2653 150.237 44.2653 145.237 48.7653 142.537C54.2653 139.237 60.4652 136.337 67.0652 137.937C72.1652 139.237 75.9652 143.037 79.5652 146.637C82.5652 149.637 85.8653 153.437 90.4653 153.237C93.8653 153.037 96.9653 151.237 99.7653 149.637C102.565 148.037 105.365 146.437 108.465 145.337C114.465 143.137 121.165 143.537 125.865 148.337C127.765 150.237 129.165 152.637 130.565 155.037C131.765 156.937 133.065 159.037 135.165 160.037C136.065 160.437 136.965 160.637 137.765 160.737C138.832 160.804 139.899 160.737 140.965 160.537C141.099 160.47 141.265 160.404 141.465 160.337Z" fill="#094722"/>
<path d="M141.665 195.537C141.599 195.604 141.532 195.604 141.465 195.537C140.199 195.737 138.932 195.804 137.665 195.737C136.732 195.67 135.865 195.537 135.065 195.337C129.365 194.137 125.765 189.937 122.765 184.837C121.465 182.937 120.165 180.537 117.965 179.537C115.665 178.537 112.865 179.237 110.565 180.137C104.465 182.437 99.4653 187.137 92.7653 188.137C86.8653 189.037 81.8653 186.737 77.4653 182.937C74.0653 179.937 71.2653 176.037 67.2653 173.837C62.1653 170.837 56.6653 174.337 52.1653 177.037C46.6653 180.337 40.4653 183.637 33.6653 182.437C30.3653 181.837 27.5653 180.037 25.2653 177.637C23.5653 175.837 22.1653 173.637 20.2653 172.137C20.132 171.937 19.9653 171.804 19.7653 171.737C19.2987 168.604 18.8653 165.47 18.4653 162.337C21.0653 162.837 23.4653 164.037 25.5653 165.737C28.0653 167.837 29.6653 170.737 32.1653 172.837C37.2653 177.037 44.2653 172.137 48.7653 169.437C54.2653 166.137 60.4653 163.237 67.0653 164.837C72.1653 166.037 75.9653 169.837 79.5653 173.537C82.5653 176.537 85.8653 180.337 90.4653 180.137C93.8653 179.937 96.9653 178.037 99.7653 176.437C102.565 174.837 105.365 173.237 108.465 172.137C114.465 169.937 121.165 170.437 125.865 175.137C127.765 177.137 129.165 179.537 130.565 181.837C131.765 183.737 133.065 185.937 135.165 186.837C135.232 186.837 135.265 186.87 135.265 186.937C137.165 187.737 139.065 187.737 140.965 187.337C141.099 187.337 141.265 187.304 141.465 187.237C141.532 190.037 141.599 192.804 141.665 195.537Z" fill="#094722"/>
<path d="M142.665 222.237C142.332 222.303 141.965 222.37 141.565 222.437C140.299 222.637 138.999 222.703 137.665 222.637C136.999 222.57 136.365 222.503 135.765 222.437C129.665 221.337 125.965 217.037 122.765 211.737C121.465 209.737 120.165 207.337 117.965 206.437C115.665 205.437 112.865 206.137 110.565 207.037C104.465 209.337 99.4654 213.937 92.7654 214.937C86.8654 215.937 81.8655 213.637 77.4655 209.837C74.0655 206.837 71.2654 202.937 67.2654 200.637C62.1654 197.737 56.6655 201.237 52.1655 203.837C46.6655 207.237 40.4655 210.437 33.6655 209.337C30.3655 208.737 27.5654 206.837 25.2654 204.437C25.0654 204.237 24.8655 204.037 24.6655 203.837C23.9321 199.437 23.2321 195.037 22.5654 190.637C23.6321 191.17 24.6321 191.837 25.5654 192.637C28.0654 194.637 29.6655 197.537 32.1655 199.637C37.2655 203.937 44.2654 198.937 48.7654 196.237C54.2654 193.037 60.4654 190.137 67.0654 191.737C72.1654 192.937 75.9654 196.737 79.5654 200.337C82.5654 203.337 85.8655 207.237 90.4655 206.937C93.8655 206.837 96.9654 204.937 99.7654 203.337C102.565 201.737 105.365 200.137 108.465 199.037C114.465 196.837 121.165 197.337 125.865 202.037C127.765 204.037 129.165 206.437 130.565 208.737C131.765 210.637 133.065 212.737 135.165 213.737C135.232 213.737 135.265 213.737 135.265 213.737C137.165 214.537 139.065 214.637 140.965 214.237C141.432 214.103 141.865 213.97 142.265 213.837C142.399 216.703 142.532 219.503 142.665 222.237Z" fill="#094722"/>
<path d="M144.465 248.637C143.532 248.904 142.565 249.137 141.565 249.337H141.465C140.732 249.47 139.965 249.537 139.165 249.537C138.699 249.537 138.199 249.537 137.665 249.537C130.365 249.037 126.265 244.337 122.765 238.537C121.465 236.637 120.165 234.237 117.965 233.237C115.665 232.237 112.865 233.037 110.565 233.837C104.465 236.137 99.4653 240.837 92.7653 241.837C86.8653 242.737 81.8653 240.437 77.4653 236.637C74.0653 233.737 71.2653 229.737 67.2653 227.537C62.1653 224.637 56.6653 228.037 52.1653 230.737C46.6653 234.137 40.4653 237.337 33.6653 236.137C32.5319 235.937 31.4653 235.604 30.4653 235.137C29.5986 230.737 28.7319 226.304 27.8652 221.837C29.2652 223.437 30.5653 225.137 32.1653 226.537C37.2653 230.837 44.2653 225.837 48.7653 223.137C54.2653 219.837 60.4652 216.937 67.0652 218.537C72.1652 219.837 75.9652 223.637 79.5652 227.237C82.5652 230.237 85.8653 234.037 90.4653 233.837C93.8653 233.637 96.9653 231.837 99.7653 230.137C102.565 228.537 105.365 227.037 108.465 225.837C114.465 223.737 121.165 224.137 125.865 228.937C127.765 230.837 129.165 233.237 130.565 235.637C131.765 237.537 133.065 239.637 135.165 240.637C136.099 241.037 136.999 241.237 137.865 241.237C138.932 241.37 139.965 241.304 140.965 241.037C141.899 240.837 142.865 240.537 143.865 240.137C144.065 243.07 144.265 245.904 144.465 248.637Z" fill="#094722"/>
<path d="M146.865 274.537C146.132 274.871 145.398 275.171 144.665 275.437C144.665 275.437 144.632 275.437 144.565 275.437C143.565 275.771 142.532 276.004 141.465 276.137C140.198 276.337 138.932 276.404 137.665 276.337C130.365 275.937 126.265 271.237 122.765 265.437C121.465 263.537 120.165 261.037 117.965 260.137C115.665 259.137 112.865 259.837 110.565 260.737C104.465 263.037 99.465 267.737 92.765 268.737C86.865 269.637 81.865 267.337 77.465 263.537C74.065 260.537 71.265 256.637 67.265 254.337C62.165 251.437 56.665 254.937 52.165 257.637C47.465 260.437 42.265 263.237 36.665 263.237C35.9984 260.437 35.3317 257.604 34.665 254.737C39.365 256.137 44.965 252.337 48.765 250.037C54.265 246.737 60.465 243.837 67.065 245.437C72.165 246.637 75.965 250.537 79.565 254.037C82.565 257.037 85.865 260.937 90.465 260.737C93.865 260.537 96.965 258.637 99.765 257.037C102.565 255.437 105.365 253.837 108.465 252.737C114.465 250.537 121.165 251.037 125.865 255.737C127.765 257.737 129.165 260.137 130.565 262.437C131.765 264.337 133.065 266.537 135.165 267.437C137.065 268.337 139.065 268.337 140.965 267.937C141.565 267.837 142.165 267.637 142.765 267.437C143.865 267.037 144.965 266.437 146.065 265.837C146.265 268.171 146.465 270.337 146.665 272.337C146.732 273.071 146.798 273.804 146.865 274.537Z" fill="#094722"/>
<g style="mix-blend-mode:multiply">
<path d="M261.365 119.737C261.265 126.637 261.065 133.437 260.665 140.037L257.265 140.737L247.265 142.537L241.265 143.637C241.199 143.637 241.165 143.637 241.165 143.637L226.665 146.237V146.337L215.465 148.337H215.365L203.865 150.437L189.365 153.137L174.865 155.737L170.265 156.637L158.765 158.737H158.565L148.865 160.537L141.465 161.837H141.365C141.032 161.904 140.699 161.937 140.365 161.937C139.432 161.937 138.499 161.937 137.565 161.937C133.432 161.937 129.365 161.904 125.365 161.837C115.365 161.637 105.865 160.937 97.0652 160.037C90.9986 159.437 85.2319 158.737 79.7653 157.937C68.3653 156.237 58.0653 154.137 49.1653 151.937C34.0653 148.237 22.7652 144.337 16.0652 141.737C15.7986 139.471 15.5652 137.237 15.3652 135.037C14.8319 129.971 14.3319 124.871 13.8652 119.737L142.165 138.637L261.365 119.737Z" fill="#8BD8AA"/>
</g>
<path d="M274.165 90.4369L213.565 106.637L195.865 111.337L141.665 125.737L86.9653 112.037L68.7653 107.437L0.965332 90.4369C23.3653 88.8369 45.0653 86.6369 65.8653 83.4369C72.7986 82.3702 79.6653 81.2036 86.4653 79.9369C105.065 76.3369 122.765 71.9369 139.265 66.3369C139.265 66.3369 156.065 71.5369 193.065 78.3369H193.165C199.632 79.5369 206.699 80.7702 214.365 82.0369C231.265 84.7369 251.065 87.6369 274.165 90.4369Z" fill="#35A562"/>
<path d="M7.36513 132.837C2.76513 118.637 0.865165 104.537 0.965165 90.4365L139.265 111.637L141.665 151.237C141.665 151.237 50.7651 149.037 7.36513 132.837Z" fill="#35A562"/>
<path d="M139.265 111.637L274.165 90.4365C274.165 90.4365 276.065 116.137 270.865 129.437L141.665 151.237L139.265 111.637Z" fill="#287F4B"/>
<path d="M214.365 82.0369L159.065 91.3369H158.965L140.265 94.4369H140.165L86.4651 103.537C83.6651 160.837 87.865 221.537 97.265 284.737C91.865 284.004 86.5317 283.204 81.265 282.337C72.665 220.037 68.065 159.437 68.265 100.737L119.865 91.4369H119.965L138.665 88.1369L193.065 78.3369H193.165C199.632 79.5369 206.698 80.7702 214.365 82.0369Z" fill="#F8B229"/>
<path d="M213.665 99.9365C213.665 99.9365 216.865 222.537 210.365 281.337C205.565 282.237 200.765 283.137 195.865 283.937C198.965 224.637 198.865 164.237 195.865 102.737L140.265 94.4365H140.165L119.965 91.4365H119.865L65.8652 83.4365C72.7986 82.3699 79.6653 81.2032 86.4653 79.9365L138.665 88.1365L158.965 91.3365H159.065L213.665 99.9365Z" fill="#F8B229"/>
<path d="M139.365 84.0361C138.465 82.0361 137.465 80.1362 136.865 78.4362C132.765 67.9362 129.565 57.1361 124.665 46.7361C121.465 40.0361 117.665 33.2362 111.865 28.9362C108.565 26.4362 104.565 25.0361 100.665 25.0361C97.565 25.0361 94.665 25.9362 92.165 27.9362C89.365 30.3362 87.6649 33.8361 87.0649 37.7361C87.2649 37.4695 87.4983 37.2361 87.765 37.0361C90.165 35.1361 92.965 34.2362 95.965 34.1362C99.965 34.0362 104.065 35.5362 107.365 37.9362C113.165 42.2362 116.965 48.9362 120.165 55.6362C123.565 62.7362 126.165 70.0362 128.765 77.3362C129.865 80.6362 131.065 83.8361 132.365 87.0361C132.565 87.5695 132.765 88.1028 132.965 88.6362C133.032 88.6362 133.098 88.6695 133.165 88.7361C134.165 89.3361 141.465 95.2361 141.465 91.0361C141.365 88.8361 140.465 86.3361 139.365 84.0361Z" fill="#EA493D"/>
<path d="M132.965 88.6357C129.265 86.0357 125.365 83.7358 121.465 81.3358C114.065 76.7358 106.565 71.8358 100.165 65.8358C94.9651 60.9358 90.065 55.3358 87.865 48.3358C86.765 44.9358 86.465 41.2357 87.065 37.7357C87.265 37.4691 87.4984 37.2357 87.7651 37.0357C90.1651 35.1357 92.9651 34.2357 95.9651 34.1357C95.2651 37.7357 95.5651 41.6357 96.6651 45.0357C98.8651 52.1357 103.765 57.7357 108.865 62.6357C114.765 68.3357 121.765 73.0358 128.765 77.3358C129.865 80.6358 131.065 83.8357 132.365 87.0357C132.565 87.569 132.765 88.1024 132.965 88.6357Z" fill="#AA170C"/>
<path d="M137.765 91.9366C140.465 95.9366 143.565 85.7366 144.065 84.5366C144.132 84.4699 144.165 84.4033 144.165 84.3366C144.098 83.6699 143.965 83.0366 143.765 82.4366C142.965 78.5366 141.965 74.7366 140.965 70.9366C138.865 62.3366 136.565 53.7366 135.265 44.8366C133.965 36.5366 133.265 27.6366 135.965 19.8366C137.565 15.3366 140.565 11.3366 144.365 8.83661C147.165 7.03661 150.465 6.03661 153.865 6.33661C154.265 6.40328 154.665 6.46989 155.065 6.53656C151.965 3.23656 148.165 0.93656 143.965 0.53656C140.365 0.13656 136.965 1.23657 134.065 3.23657C130.365 5.73657 127.465 9.6366 125.865 14.1366C123.165 21.9366 123.965 30.8366 125.265 39.3366C127.365 52.3366 131.165 64.6366 134.065 77.1366C134.565 79.1366 134.865 81.6366 135.265 84.0366C135.765 86.9366 136.365 89.8366 137.765 91.9366Z" fill="#EA493D"/>
<path d="M144.165 84.3369C146.165 79.5369 148.265 74.7368 150.465 70.0368C154.465 60.9368 158.465 51.4369 160.665 41.6369C162.365 33.7369 163.465 25.2369 161.065 17.1369C159.865 13.2369 157.765 9.43685 155.065 6.53685C154.665 6.47018 154.265 6.40356 153.865 6.3369C150.465 6.0369 147.165 7.0369 144.365 8.8369C147.265 11.8369 149.465 15.7369 150.665 19.7369C153.065 27.8369 152.165 36.3369 150.365 44.2369C148.365 53.4369 144.765 62.3369 141.065 70.9369C141.965 74.7369 142.965 78.5369 143.765 82.4369C143.965 83.0369 144.098 83.6702 144.165 84.3369Z" fill="#AA170C"/>
<path d="M138.465 90.7363C138.465 95.6363 146.765 88.9364 147.865 88.1364C147.931 88.1364 147.998 88.103 148.065 88.0363C148.331 87.4363 148.598 86.8363 148.865 86.2363C150.265 82.6363 151.665 78.9363 152.965 75.2363C155.965 66.9363 158.965 58.5363 162.865 50.4363C166.465 42.7363 170.865 35.0364 177.465 30.1364C181.365 27.3364 186.065 25.6363 190.565 25.7363C193.965 25.8363 197.265 26.8363 199.965 29.0363C200.232 29.303 200.498 29.5697 200.765 29.8364C200.065 25.4364 198.165 21.3364 194.965 18.6364C192.165 16.3364 188.765 15.2363 185.265 15.2363C180.765 15.2363 176.165 16.9363 172.365 19.7363C165.765 24.7363 161.365 32.4363 157.765 40.2363C152.065 52.1363 148.365 64.5363 143.765 76.4363C142.965 78.4363 141.865 80.5364 140.865 82.8364C139.565 85.5364 138.465 88.2363 138.465 90.7363Z" fill="#EA493D"/>
<path d="M148.065 88.0363C152.365 85.1363 156.865 82.5363 161.265 79.7363C169.665 74.5363 178.365 68.9363 185.665 62.0363C191.565 56.5363 197.265 50.0363 199.765 42.0363C201.065 38.1363 201.365 33.8364 200.765 29.8364C200.498 29.5697 200.232 29.303 199.965 29.0363C197.265 26.8363 193.965 25.8363 190.565 25.7363C191.365 29.8363 190.965 34.3364 189.765 38.3364C187.165 46.3364 181.565 52.8363 175.665 58.4363C168.865 64.9363 160.865 70.2363 152.965 75.2363C151.665 78.9363 150.265 82.6363 148.865 86.2363C148.598 86.8363 148.332 87.4363 148.065 88.0363Z" fill="#AA170C"/>
</svg>
